HIERARCHY
ROOT hip
{
  OFFSET 0 0 0
  CHANNELS 6 Xposition Yposition Zposition Zrotation Yrotation Xrotation
  JOINT abdomen
  {
    OFFSET 0 20.6881 -0.73152
    CHANNELS 3 Zrotation Xrotation Yrotation
    JOINT chest
    {
      OFFSET 0 11.7043 -0.48768
      CHANNELS 3 Zrotation Xrotation Yrotation
      JOINT neck
      {
        OFFSET 0 22.1894 -2.19456
        CHANNELS 3 Zrotation Xrotation Yrotation
        JOINT head
        {
          OFFSET -0.24384 7.07133 1.2192
          CHANNELS 3 Zrotation Xrotation Yrotation
          JOINT leftEye
          {
            OFFSET 4.14528 8.04674 8.04672
            CHANNELS 3 Zrotation Xrotation Yrotation
            End Site
            {
              OFFSET 1 0 0
            }
          }
          JOINT rightEye
          {
            OFFSET -3.6576 8.04674 8.04672
            CHANNELS 3 Zrotation Xrotation Yrotation
            End Site
            {
              OFFSET 1 0 0
            }
          }
        }
      }
      JOINT rCollar
      {
        OFFSET -2.68224 19.2634 -4.8768
        CHANNELS 3 Zrotation Xrotation Yrotation
        JOINT rShldr
        {
          OFFSET -8.77824 -1.95073 1.46304
          CHANNELS 3 Zrotation Xrotation Yrotation
          JOINT rForeArm
          {
            OFFSET -28.1742 -1.7115 0.48768
            CHANNELS 3 Zrotation Xrotation Yrotation
            JOINT rHand
            {
              OFFSET -22.5879 0.773209 7.07136
              CHANNELS 3 Zrotation Xrotation Yrotation
              JOINT rThumb1
              {
                OFFSET -1.2192 -0.487915 3.41376
                CHANNELS 3 Zrotation Xrotation Yrotation
                JOINT rThumb2
                {
                  OFFSET -3.37035 -0.52449 3.41376
                  CHANNELS 3 Zrotation Xrotation Yrotation
                  End Site
                  {
                    OFFSET -1.78271 -1.18214 1.43049
                  }
                }
              }
              JOINT rIndex1
              {
                OFFSET -7.75947 0.938293 5.60832
                CHANNELS 3 Zrotation Xrotation Yrotation
                JOINT rIndex2
                {
                  OFFSET -2.54057 -0.884171 1.56538
                  CHANNELS 3 Zrotation Xrotation Yrotation
                  End Site
                  {
                    OFFSET -1.62519 -0.234802 1.16502
                  }
                }
              }
              JOINT rMid1
              {
                OFFSET -8.24714 1.18213 3.41376
                CHANNELS 3 Zrotation Xrotation Yrotation
                JOINT rMid2
                {
                  OFFSET -3.10165 -0.590103 1.0647
                  CHANNELS 3 Zrotation Xrotation Yrotation
                  End Site
                  {
                    OFFSET -2.48547 -0.328903 0.83742
                  }
                }
              }
              JOINT rRing1
              {
                OFFSET -8.82822 0.546677 1.51678
                CHANNELS 3 Zrotation Xrotation Yrotation
                JOINT rRing2
                {
                  OFFSET -2.60934 -0.819778 -0.0198488
                  CHANNELS 3 Zrotation Xrotation Yrotation
                  End Site
                  {
                    OFFSET -2.33842 -0.294052 0.168128
                  }
                }
              }
              JOINT rPinky1
              {
                OFFSET -8.27202 -0.0477905 -0.4584
                CHANNELS 3 Zrotation Xrotation Yrotation
                JOINT rPinky2
                {
                  OFFSET -1.82734 -0.647385 -0.700984
                  CHANNELS 3 Zrotation Xrotation Yrotation
                  End Site
                  {
                    OFFSET -1.69225 -0.51767 -0.607171
                  }
                }
              }
            }
          }
        }
      }
      JOINT lCollar
      {
        OFFSET 2.68224 19.2634 -4.8768
        CHANNELS 3 Zrotation Xrotation Yrotation
        JOINT lShldr
        {
          OFFSET 8.77824 -1.95073 1.46304
          CHANNELS 3 Zrotation Xrotation Yrotation
          JOINT lForeArm
          {
            OFFSET 28.1742 -1.7115 0.48768
            CHANNELS 3 Zrotation Xrotation Yrotation
            JOINT lHand
            {
              OFFSET 22.5879 0.773209 7.07136
              CHANNELS 3 Zrotation Xrotation Yrotation
              JOINT lThumb1
              {
                OFFSET 1.2192 -0.487915 3.41376
                CHANNELS 3 Zrotation Xrotation Yrotation
                JOINT lThumb2
                {
                  OFFSET 3.37035 -0.52449 3.41376
                  CHANNELS 3 Zrotation Xrotation Yrotation
                  End Site
                  {
                    OFFSET 1.78271 -1.18214 1.43049
                  }
                }
              }
              JOINT lIndex1
              {
                OFFSET 7.75947 0.938293 5.60832
                CHANNELS 3 Zrotation Xrotation Yrotation
                JOINT lIndex2
                {
                  OFFSET 2.54057 -0.884171 1.56538
                  CHANNELS 3 Zrotation Xrotation Yrotation
                  End Site
                  {
                    OFFSET 1.62519 -0.234802 1.16502
                  }
                }
              }
              JOINT lMid1
              {
                OFFSET 8.24714 1.18213 3.41376
                CHANNELS 3 Zrotation Xrotation Yrotation
                JOINT lMid2
                {
                  OFFSET 3.10165 -0.590103 1.0647
                  CHANNELS 3 Zrotation Xrotation Yrotation
                  End Site
                  {
                    OFFSET 2.48547 -0.328903 0.83742
                  }
                }
              }
              JOINT lRing1
              {
                OFFSET 8.82822 0.546677 1.51678
                CHANNELS 3 Zrotation Xrotation Yrotation
                JOINT lRing2
                {
                  OFFSET 2.60934 -0.819778 -0.0198488
                  CHANNELS 3 Zrotation Xrotation Yrotation
                  End Site
                  {
                    OFFSET 2.33842 -0.294052 0.168128
                  }
                }
              }
              JOINT lPinky1
              {
                OFFSET 8.27202 -0.0477905 -0.4584
                CHANNELS 3 Zrotation Xrotation Yrotation
                JOINT lPinky2
                {
                  OFFSET 1.82734 -0.647385 -0.700984
                  CHANNELS 3 Zrotation Xrotation Yrotation
                  End Site
                  {
                    OFFSET 1.69225 -0.51767 -0.607171
                  }
                }
              }
            }
          }
        }
      }
    }
  }
  JOINT rButtock
  {
    OFFSET -8.77824 4.35084 1.2192
    CHANNELS 3 Zrotation Xrotation Yrotation
    JOINT rThigh
    {
      OFFSET 0 -1.70687 -2.19456
      CHANNELS 3 Zrotation Xrotation Yrotation
      JOINT rShin
      {
        OFFSET 0 -36.8199 0.73152
        CHANNELS 3 Zrotation Xrotation Yrotation
        JOINT rFoot
        {
          OFFSET 0.73152 -45.1104 -5.12064
          CHANNELS 3 Zrotation Xrotation Yrotation
          End Site
          {
            OFFSET -1.1221 -3.69964 12.103
          }
        }
      }
    }
  }
  JOINT lButtock
  {
    OFFSET 8.77824 4.35084 1.2192
    CHANNELS 3 Zrotation Xrotation Yrotation
    JOINT lThigh
    {
      OFFSET 0 -1.70687 -2.19456
      CHANNELS 3 Zrotation Xrotation Yrotation
      JOINT lShin
      {
        OFFSET 0 -36.8199 0.73152
        CHANNELS 3 Zrotation Xrotation Yrotation
        JOINT lFoot
        {
          OFFSET -0.73152 -45.1104 -5.12064
          CHANNELS 3 Zrotation Xrotation Yrotation
          End Site
          {
            OFFSET 1.1221 -3.69964 12.103
          }
        }
      }
    }
  }
}
MOTION
Frames:	4
Frame Time:	0.00833333
14.2981 83.0769 25.459 -0.3695 -55.1252 0.9619 2.30402 8.84141 7.26389 -1.37897 -4.44844 2.03815 -14.2948 -2.94177 -8.495 20.7634 9.81554 -14.4944 -0.0 0.0 0.0 -0.0 0.0 0.0 -8.47694e-14 -1.0046e-13 6.23468e-13 79.4299 15.4492 6.4101 -16.5285 -9.18761 30.7969 -0.00901746 2.70988 0.381136 -2.34733e-09 2.82691e-09 1.2479e-09 -4.05587e-09 4.89471e-09 2.17208e-09 -2.34732e-09 2.82692e-09 1.2479e-09 7.73091 5.47488 0.417314 -2.34733e-09 2.82691e-09 1.2479e-09 2.90554 0.965183 0.102902 -2.34732e-09 2.82691e-09 1.2479e-09 10.2786 0.731801 0.0259123 -2.34733e-09 2.82692e-09 1.24791e-09 2.22167 -0.733487 -0.20892 -8.48425e-14 -1.00461e-13 6.23287e-13 -83.6047 19.8958 5.76887 13.5206 -6.57405 -24.5945 0.10119 9.03323 -1.28028 -1.44038e-09 4.34638e-09 1.50135e-09 -2.47851e-09 7.53877e-09 2.60935e-09 -1.44039e-09 4.34638e-09 1.50136e-09 -7.73091 5.47488 -0.417314 -1.44038e-09 4.34638e-09 1.50136e-09 -2.90554 0.965183 -0.102902 -1.44038e-09 4.34638e-09 1.50135e-09 -10.2786 0.731801 -0.0259123 -1.44038e-09 4.34639e-09 1.50134e-09 -2.22167 -0.733487 0.20892 -2.03217e-16 0.0 -3.88251e-19 10.0051 3.00477 -2.20952 -0.0598668 17.8071 0.311811 -0.183691 -12.7191 1.27598 2.03217e-16 0.0 3.88251e-19 3.3707 -26.4136 -6.65124 0.092361 20.187 -0.147062 0.425906 0.354324 -1.20389
13.7198 83.0855 25.8813 -0.4423 -55.4807 1.1365 2.25264 8.67281 7.30614 -1.46223 -4.38817 2.04258 -14.2735 -2.9512 -8.47152 20.7551 9.73961 -14.4378 -0.0 0.0 0.0 -0.0 0.0 0.0 -7.52886e-14 -7.71275e-14 4.45327e-13 79.4846 15.4433 6.50252 -16.5182 -9.17781 30.7745 -0.00879767 2.67707 0.376515 -1.57785e-09 2.07715e-09 9.42138e-10 -2.72699e-09 3.59653e-09 1.63905e-09 -1.57785e-09 2.07715e-09 9.42131e-10 7.73091 5.47488 0.417314 -1.57785e-09 2.07715e-09 9.42134e-10 2.90554 0.965183 0.102902 -1.57784e-09 2.07715e-09 9.42136e-10 10.2786 0.731801 0.0259123 -1.57786e-09 2.07716e-09 9.42144e-10 2.22167 -0.733487 -0.20892 -7.53455e-14 -7.71296e-14 4.45178e-13 -83.5793 19.8088 5.79901 13.4597 -6.52658 -24.4732 0.102672 9.10079 -1.29001 -8.91939e-10 3.63394e-09 1.52255e-09 -1.52998e-09 6.30101e-09 2.64142e-09 -8.91948e-10 3.63394e-09 1.52256e-09 -7.73091 5.47488 -0.417314 -8.91938e-10 3.63394e-09 1.52256e-09 -2.90554 0.965183 -0.102902 -8.91942e-10 3.63394e-09 1.52256e-09 -10.2786 0.731801 -0.0259123 -8.91941e-10 3.63394e-09 1.52255e-09 -2.22167 -0.733487 0.20892 -2.03217e-16 0.0 -3.88251e-19 9.84981 3.58329 -2.06958 -0.0623309 17.4016 0.28808 -0.0944186 -12.6068 1.5801 2.03217e-16 0.0 3.88251e-19 3.2603 -26.3558 -6.48135 0.079759 18.2493 -0.0971429 0.425034 0.481991 -1.30196
13.1168 83.0919 26.3405 -0.4934 -55.8511 1.2264 2.21597 8.54596 7.32646 -1.56248 -4.38867 2.04057 -14.1956 -2.93138 -8.42944 20.6773 9.69129 -14.371 -0.0 0.0 0.0 -0.0 0.0 0.0 -6.58985e-14 -5.8251e-14 3.26281e-13 79.6035 15.4603 6.53179 -16.4821 -9.14319 30.6969 -0.00942953 2.78352 0.391505 -1.00967e-09 1.56238e-09 7.02554e-10 -1.74543e-09 2.70509e-09 1.22171e-09 -1.00966e-09 1.56238e-09 7.02548e-10 7.73091 5.47488 0.417314 -1.00967e-09 1.56238e-09 7.02553e-10 2.90554 0.965183 0.102902 -1.00966e-09 1.56238e-09 7.02555e-10 10.2786 0.731801 0.0259123 -1.00967e-09 1.56238e-09 7.02562e-10 2.22167 -0.733487 -0.20892 -6.59413e-14 -5.82526e-14 3.26141e-13 -83.5503 19.641 5.90409 13.4041 -6.48346 -24.3629 0.105118 9.20794 -1.30546 -4.69462e-10 3.05438e-09 1.53976e-09 -7.99118e-10 5.29394e-09 2.66734e-09 -4.6947e-10 3.05438e-09 1.53977e-09 -7.73091 5.47488 -0.417314 -4.69461e-10 3.05438e-09 1.53977e-09 -2.90554 0.965183 -0.102902 -4.69466e-10 3.05438e-09 1.53977e-09 -10.2786 0.731801 -0.0259123 -4.69463e-10 3.05438e-09 1.53976e-09 -2.22167 -0.733487 0.20892 -2.03217e-16 0.0 -3.88251e-19 9.69886 4.18973 -1.90084 -0.0641267 17.0381 0.267029 9.64709e-05 -12.455 1.91643 2.03217e-16 0.0 3.88251e-19 3.1585 -26.3136 -6.15015 0.0701505 16.5661 -0.0542745 0.419139 0.265085 -1.37544
12.5049 83.0919 26.7962 -0.4796 -56.2399 1.2392 2.19418 8.44724 7.32326 -1.67859 -4.42877 2.03188 -14.0705 -2.88875 -8.36907 20.5464 9.65777 -14.2885 -0.0 0.0 0.0 -0.0 0.0 0.0 -5.15595e-14 -3.51725e-14 1.85137e-13 79.7732 15.4891 6.51581 -16.4238 -9.08729 30.5721 -0.0107972 2.98513 0.419909 -2.82237e-10 8.81098e-10 3.87631e-10 -4.88427e-10 1.52517e-09 6.73205e-10 -2.82235e-10 8.81098e-10 3.87625e-10 7.73091 5.47488 0.417314 -2.82238e-10 8.81098e-10 3.87633e-10 2.90554 0.965183 0.102902 -2.8223e-10 8.81098e-10 3.87635e-10 10.2786 0.731801 0.0259123 -2.82243e-10 8.81101e-10 3.87641e-10 2.22167 -0.733487 -0.20892 -5.15883e-14 -3.51727e-14 1.84994e-13 -83.5099 19.4178 6.06037 13.3543 -6.44502 -24.264 0.108011 9.33191 -1.32335 6.53482e-11 2.17479e-09 1.45189e-09 1.25336e-10 3.76593e-09 2.51032e-09 6.53405e-11 2.17479e-09 1.4519e-09 -7.73091 5.47488 -0.417314 6.53498e-11 2.17479e-09 1.4519e-09 -2.90554 0.965183 -0.102902 6.53441e-11 2.17479e-09 1.45189e-09 -10.2786 0.731801 -0.0259123 6.53499e-11 2.17479e-09 1.45189e-09 -2.22167 -0.733487 0.20892 -2.03217e-16 0.0 -3.88251e-19 9.54922 4.81624 -1.7082 -0.0653688 16.7048 0.247256 0.097452 -12.2746 2.27624 2.03217e-16 0.0 3.88251e-19 3.06522 -26.28 -5.68781 0.0621122 15.0841 -0.0157743 0.4087 -0.179963 -1.43976
